# xmcd CD database file
# Copyright (C) 1993-1998 Ti Kan
#
# Track frame offsets:
#  165
#  14022
#  27657
#  41550
#  53302
#  64400
#  75795
#  88050
#  102975
#  116775
#  130345
#
# Disc length: 1957 seconds
#
# Revision: 1
# Processed by: cddbd v1.4b41PL1 Copyright (c) Steve Scherf et al.
# Submitted via: CDWizzard Release:4.35
#
DISCID=8e07a30b
DTITLE=Various Artist - Slow Jams - The 60's Volume 3
DYEAR=1900
DGENRE=
TTITLE0=Miracles - Tracks of My Tears
TTITLE1=Jimmy Ruffin - What Becomes of the Broken Hearted
TTITLE2=Percy Sledge - Take Time To Know Her
TTITLE3=Solomon Burke - If You Need Me
TTITLE4=Jimmy Hughes - Steal Away
TTITLE5=Little Anthony and The Imperials - Goin' Out Of My Head
TTITLE6=Aretha Franklin (You Make Me Feel Like A) Natural Woman
TTITLE7=Sam and Dave - When Something Is Wrong With My Baby
TTITLE8=Garnet Mimms - For Your Precious Love
TTITLE9=Billy Stewart - I Do Love You
TTITLE10=Mitty Collier - I Had A Talk With My Man
EXTD=
EXTT0=
EXTT1=
EXTT2=
EXTT3=
EXTT4=
EXTT5=
EXTT6=
EXTT7=
EXTT8=
EXTT9=
EXTT10=
PLAYORDER=
